# xmcd
#
# Track frame offsets:
#	150
#	24692
#	38019
#	52060
#	67732
#	86558
#	105476
#	125741
#	146592
#	168689
#	188052
#	205176
#	222353
#	246136
#	258812
#	276325
#
# Disc length: 4014 seconds
#
# Revision: 1
# Processed by: cddbd v1.5.2PL0 Copyright (c) Steve Scherf et al.
# Submitted via: audiograbber 1.83.01
#
DISCID=eb0fac10
DTITLE=Various Artist - Hamonica Masters of New Zealand
DYEAR=2007
DGENRE=Blues
TTITLE0=Craig Bracken - Want My Money Back
TTITLE1=Derek "Haggis" Maguiness - Life is a Beautiful Thing
TTITLE2=Peri Grant - Pushing it Uphill
TTITLE3=Jack Craw - This Little Thing
TTITLE4=Shayn Wills - Only One
TTITLE5=Brian Glamunzina and Stingray - Big Time Baby
TTITLE6=Keri Bettina and Indigo Blue - The Rain Won't Go Away
TTITLE7=Brendan Power - The Real Blues Reel
TTITLE8=Nate Taiapa and Darcy Perry - Blues Man
TTITLE9=Aaron Carpenter - Sunshower
TTITLE10=Mike Garner - Leaving Blues (All Around the World)
TTITLE11=Graham Clark and Grant Bullot - My Kidney's Going to Hell
TTITLE12=Midge Marsden - Carry My Blues Away
TTITLE13=Darcy Perry - Everybody Come Party
TTITLE14=Erna Ferry - A Little Kissing
TTITLE15=Bullfrog Rata - Next Town
EXTD=
EXTT0=
EXTT1=
EXTT2=
EXTT3=
EXTT4=
EXTT5=
EXTT6=
EXTT7=
EXTT8=
EXTT9=
EXTT10=
EXTT11=
EXTT12=
EXTT13=
EXTT14=
EXTT15=
PLAYORDER=
